<?xml version="1.0" standalone="no"?>
<!DOCTYPE svg PUBLIC "-//W3C//DTD SVG 20010904//EN"
 "http://www.w3.org/TR/2001/REC-SVG-20010904/DTD/svg10.dtd">
<svg version="1.0" xmlns="http://www.w3.org/2000/svg"
 width="512.000000pt" height="512.000000pt" viewBox="0 0 512.000000 512.000000"
 preserveAspectRatio="xMidYMid meet">

<g transform="translate(0.000000,512.000000) scale(0.100000,-0.100000)"
fill="#000000" stroke="none">
<path d="M2565 4630 c-313 -27 -489 -159 -555 -417 -21 -78 -40 -317 -40 -495
l0 -88 160 0 160 0 0 98 c0 152 18 372 34 427 26 84 73 122 181 146 86 20
1499 20 1596 1 127 -26 175 -74 201 -201 19 -96 19 -1706 0 -1802 -17 -82 -47
-137 -91 -163 -70 -41 -132 -48 -473 -53 l-328 -5 0 -159 0 -159 253 0 c416 0
582 23 704 97 166 99 241 246 263 510 13 164 13 1502 0 1666 -32 395 -198 562
-590 597 -131 11 -1337 11 -1475 0z"/>
<path d="M1062 3349 c-369 -34 -538 -207 -571 -586 -14 -154 -14 -1531 -1
-1683 35 -389 201 -556 587 -589 152 -14 1312 -14 1462 -1 63 6 144 17 180 25
201 47 338 184 391 392 31 119 40 343 40 1013 0 670 -9 894 -40 1013 -55 219
-192 348 -423 399 -88 20 -126 21 -812 24 -396 1 -762 -2 -813 -7z m1570 -331
c142 -38 172 -92 188 -338 12 -188 12 -1332 0 -1520 -11 -168 -27 -233 -70
-277 -76 -78 -173 -86 -1021 -80 -558 3 -684 6 -730 19 -115 30 -156 75 -181
197 -19 98 -19 1719 1 1806 33 147 85 186 271 205 41 4 392 7 780 6 594 -2
714 -5 762 -18z"/>
</g>
</svg>
