<?xml version="1.0" standalone="no"?>
<!DOCTYPE svg PUBLIC "-//W3C//DTD SVG 20010904//EN"
 "http://www.w3.org/TR/2001/REC-SVG-20010904/DTD/svg10.dtd">
<svg version="1.0" xmlns="http://www.w3.org/2000/svg"
 width="512.000000pt" height="512.000000pt" viewBox="0 0 512.000000 512.000000"
 preserveAspectRatio="xMidYMid meet">

<g transform="translate(0.000000,512.000000) scale(0.100000,-0.100000)"
fill="#000000" stroke="none">
<path d="M1785 4499 c-160 -20 -345 -91 -489 -187 -39 -26 -109 -85 -157 -132
-145 -144 -240 -310 -297 -518 l-27 -97 -3 -855 c-2 -722 -1 -870 12 -950 39
-245 150 -456 334 -631 139 -134 301 -225 489 -277 l98 -27 910 0 910 0 100
27 c369 102 668 386 781 743 45 141 54 242 54 585 0 285 -2 319 -19 355 -61
131 -222 165 -324 67 -62 -59 -61 -55 -68 -442 -5 -335 -7 -359 -28 -425 -74
-226 -237 -395 -456 -472 l-80 -28 -844 -3 c-818 -2 -847 -2 -925 18 -231 57
-421 234 -503 465 l-28 80 -3 835 c-3 936 -5 914 68 1065 70 145 183 260 324
328 145 71 130 70 752 76 l561 6 41 29 c50 34 92 112 92 170 0 51 -28 112 -66
148 -61 57 -69 58 -628 57 -281 -1 -542 -5 -581 -10z"/>
<path d="M3890 4489 c-51 -19 -106 -72 -808 -776 -671 -672 -757 -762 -783
-816 -34 -72 -35 -77 -58 -381 -12 -166 -15 -252 -9 -283 13 -59 62 -121 128
-160 67 -40 105 -42 420 -14 160 14 230 25 275 41 58 21 87 50 826 789 612
612 771 776 790 816 19 40 24 66 24 131 0 73 -3 87 -37 155 -44 87 -114 170
-260 308 -120 113 -208 174 -282 196 -69 21 -160 18 -226 -6z m261 -519 c60
-61 109 -116 109 -121 0 -6 -304 -316 -676 -689 -760 -762 -661 -682 -847
-696 l-89 -7 7 102 c4 56 10 115 14 131 4 22 176 202 679 710 371 374 678 680
684 680 5 0 59 -50 119 -110z"/>
</g>
</svg>
