<?xml version="1.0" standalone="no"?>
<!DOCTYPE svg PUBLIC "-//W3C//DTD SVG 20010904//EN"
 "http://www.w3.org/TR/2001/REC-SVG-20010904/DTD/svg10.dtd">
<svg version="1.0" xmlns="http://www.w3.org/2000/svg"
 width="512.000000pt" height="512.000000pt" viewBox="0 0 512.000000 512.000000"
 preserveAspectRatio="xMidYMid meet">

<g transform="translate(0.000000,512.000000) scale(0.100000,-0.100000)"
fill="#000000" stroke="none">
<path d="M3167 5029 c-550 -63 -1041 -402 -1291 -888 -35 -69 -78 -166 -96
-216 -17 -49 -32 -91 -34 -92 -2 -2 -43 10 -92 25 -140 46 -215 57 -379 57
-107 -1 -175 -6 -235 -19 -234 -50 -436 -160 -606 -330 -170 -170 -279 -371
-330 -606 -26 -117 -25 -361 0 -480 65 -305 251 -581 503 -750 l75 -50 -38 0
c-67 0 -116 -22 -169 -75 -64 -63 -75 -100 -75 -247 0 -118 9 -163 42 -211 19
-27 19 -27 0 -55 -33 -47 -42 -92 -42 -212 0 -120 9 -165 42 -212 19 -28 19
-28 0 -55 -10 -16 -24 -43 -30 -62 -16 -45 -15 -253 0 -305 16 -55 99 -138
154 -154 31 -9 217 -12 721 -12 l680 0 58 29 c57 29 59 29 84 12 14 -10 41
-23 60 -29 50 -17 1368 -17 1425 0 55 16 138 99 154 154 15 53 16 255 0 306
-6 22 -31 62 -55 88 -75 84 -41 81 -829 78 -394 -2 -697 -7 -708 -12 -17 -8
-18 -7 -11 10 5 10 11 80 13 154 3 133 3 136 -26 193 l-29 57 29 56 c26 53 28
65 28 177 0 145 -11 185 -67 247 -47 53 -108 80 -176 80 l-39 0 74 49 c40 27
101 75 135 106 56 50 168 181 191 221 7 13 21 6 88 -43 466 -348 1085 -429
1618 -211 558 228 937 705 1038 1308 7 41 12 154 12 250 0 242 -33 421 -116
624 -289 707 -1002 1132 -1751 1045z m503 -182 c301 -63 566 -211 781 -433
215 -223 344 -475 406 -789 24 -125 24 -405 0 -530 -111 -563 -497 -1006
-1027 -1178 -171 -56 -280 -72 -480 -71 -192 1 -304 18 -472 74 -153 51 -364
169 -471 262 l-39 33 22 55 c209 520 29 1122 -429 1435 l-69 47 33 98 c165
490 559 854 1068 986 193 50 469 54 677 11z m-2244 -1098 c144 -20 324 -90
443 -172 65 -45 195 -171 248 -241 195 -261 255 -633 150 -941 -53 -156 -124
-271 -242 -393 -321 -335 -801 -416 -1220 -205 -104 53 -183 113 -276 210 -89
93 -124 142 -177 249 -149 296 -149 632 0 929 56 111 112 186 209 281 97 93
144 127 255 182 190 96 400 130 610 101z m-706 -2309 l0 -80 80 0 80 0 0 80 0
80 80 0 80 0 0 -80 0 -80 80 0 80 0 0 80 0 80 80 0 80 0 0 -80 0 -80 80 0 80
0 0 80 0 80 80 0 80 0 0 -80 0 -80 80 0 80 0 0 80 0 80 55 0 c46 0 60 -4 80
-25 24 -23 25 -31 25 -135 0 -104 -1 -112 -25 -135 l-24 -25 -671 0 -671 0
-24 25 c-24 23 -25 31 -25 135 0 104 1 112 25 135 20 21 34 25 80 25 l55 0 0
-80z m0 -480 l0 -80 80 0 80 0 0 80 0 80 80 0 80 0 0 -80 0 -80 80 0 80 0 0
80 0 80 80 0 80 0 0 -80 0 -80 80 0 80 0 0 80 0 80 80 0 80 0 0 -80 0 -80 80
0 80 0 0 80 0 80 55 0 c46 0 60 -4 80 -25 24 -23 25 -31 25 -135 0 -104 -1
-112 -25 -135 l-24 -25 -671 0 -671 0 -24 25 c-24 23 -25 31 -25 135 0 104 1
112 25 135 20 21 34 25 80 25 l55 0 0 -80z m0 -480 l0 -80 80 0 80 0 0 80 0
80 80 0 80 0 0 -80 0 -80 80 0 80 0 0 80 0 80 80 0 80 0 0 -80 0 -80 80 0 80
0 0 80 0 80 80 0 80 0 0 -80 0 -80 80 0 80 0 0 80 0 80 55 0 c46 0 60 -4 80
-25 24 -23 25 -31 25 -135 0 -104 -1 -112 -25 -135 l-24 -25 -671 0 -671 0
-24 25 c-24 23 -25 31 -25 135 0 104 1 112 25 135 20 21 34 25 80 25 l55 0 0
-80z m1600 0 l0 -80 80 0 80 0 0 80 0 80 80 0 80 0 0 -80 0 -80 80 0 80 0 0
80 0 80 80 0 80 0 0 -80 0 -80 80 0 80 0 0 80 0 80 80 0 80 0 0 -80 0 -80 80
0 80 0 0 80 0 80 55 0 c46 0 60 -4 80 -25 24 -23 25 -31 25 -135 0 -104 -1
-112 -25 -135 l-24 -25 -671 0 -671 0 -24 25 c-24 23 -25 31 -25 135 0 104 1
112 25 135 20 21 34 25 80 25 l55 0 0 -80z"/>
<path d="M3222 4713 c-37 -5 -36 9 -16 -124 6 -41 6 -41 43 -35 20 3 53 6 74
6 l37 0 0 80 0 80 -52 -2 c-29 0 -68 -3 -86 -5z"/>
<path d="M2931 4649 c-340 -116 -627 -364 -786 -679 -50 -99 -50 -97 29 -130
38 -16 70 -29 71 -27 1 1 24 45 51 97 140 274 390 488 681 586 43 14 79 27 80
28 3 2 -34 147 -39 151 -2 2 -41 -10 -87 -26z"/>
<path d="M3302 3417 c-435 -435 -792 -797 -792 -802 0 -13 92 -105 105 -105 6
0 368 358 805 795 l795 795 -55 55 c-30 30 -57 55 -60 55 -3 0 -362 -357 -798
-793z"/>
<path d="M2885 4071 c-92 -24 -173 -90 -215 -176 -19 -41 -24 -66 -24 -135 -1
-78 2 -90 33 -148 38 -70 70 -100 145 -140 43 -22 64 -26 136 -26 72 0 93 4
136 26 75 40 107 70 145 140 31 58 34 70 33 148 0 72 -4 93 -26 136 -39 75
-70 107 -137 143 -65 34 -164 49 -226 32z m138 -165 c103 -43 128 -177 48
-257 -112 -113 -296 -12 -267 146 18 94 128 150 219 111z"/>
<path d="M4556 3278 c-18 -222 -86 -414 -209 -598 -64 -95 -221 -251 -315
-314 -69 -46 -72 -49 -59 -69 7 -12 26 -43 41 -69 l28 -48 91 63 c331 226 552
614 583 1025 l7 92 -80 0 -80 0 -7 -82z"/>
<path d="M3685 3271 c-92 -24 -173 -90 -215 -176 -19 -41 -24 -66 -24 -135 -1
-78 2 -90 33 -148 38 -70 70 -100 145 -140 43 -22 64 -26 136 -26 72 0 93 4
136 26 75 40 107 70 145 140 31 58 34 70 33 148 0 72 -4 93 -26 136 -39 75
-70 107 -137 143 -65 34 -164 49 -226 32z m138 -165 c103 -43 128 -177 48
-257 -112 -113 -296 -12 -267 146 18 94 128 150 219 111z"/>
<path d="M3735 2221 c-38 -13 -71 -25 -72 -25 -3 -2 35 -147 39 -151 2 -2 39
9 83 24 91 30 90 29 47 121 l-27 56 -70 -25z"/>
<path d="M3413 2163 l-53 -4 0 -80 0 -79 39 0 c21 0 59 3 85 6 l47 7 -5 38
c-3 22 -9 57 -12 79 -5 33 -9 40 -27 38 -12 -1 -46 -3 -74 -5z"/>
<path d="M1116 3584 c-350 -63 -639 -356 -701 -709 -104 -600 417 -1125 1013
-1021 479 84 801 540 718 1015 -85 484 -544 803 -1030 715z m379 -178 c113
-36 198 -89 290 -181 91 -91 144 -175 182 -290 39 -117 39 -313 0 -430 -38
-115 -91 -199 -182 -290 -91 -91 -175 -144 -290 -182 -71 -23 -96 -26 -215
-26 -119 0 -144 3 -215 26 -114 38 -198 90 -290 182 -91 91 -144 175 -182 290
-23 71 -26 96 -26 215 0 119 3 144 26 215 38 115 91 199 182 290 112 112 235
179 379 205 89 16 251 5 341 -24z"/>
<path d="M1200 3200 l0 -80 -120 0 -120 0 0 -136 c0 -170 9 -204 75 -269 63
-64 100 -75 244 -75 105 0 113 -1 136 -25 21 -20 25 -34 25 -80 l0 -55 -135 0
c-131 0 -137 1 -160 25 -14 13 -25 31 -25 40 0 12 -15 15 -80 15 -67 0 -80 -3
-80 -16 0 -100 124 -224 224 -224 13 0 16 -13 16 -80 l0 -80 80 0 80 0 0 80 0
80 120 0 120 0 0 136 c0 170 -9 204 -75 269 -63 64 -100 75 -244 75 -105 0
-113 1 -136 25 -21 20 -25 34 -25 80 l0 55 135 0 c131 0 137 -1 160 -25 14
-13 25 -31 25 -40 0 -12 15 -15 80 -15 67 0 80 3 80 16 0 76 -80 182 -157 208
-26 9 -55 16 -65 16 -16 0 -18 9 -18 80 l0 80 -80 0 -80 0 0 -80z"/>
<path d="M3600 1440 l0 -80 560 0 560 0 0 80 0 80 -560 0 -560 0 0 -80z"/>
<path d="M3600 1120 l0 -80 560 0 560 0 0 80 0 80 -560 0 -560 0 0 -80z"/>
<path d="M3920 800 l0 -80 80 0 80 0 0 80 0 80 -80 0 -80 0 0 -80z"/>
<path d="M4240 800 l0 -80 80 0 80 0 0 80 0 80 -80 0 -80 0 0 -80z"/>
<path d="M4560 800 l0 -80 80 0 80 0 0 80 0 80 -80 0 -80 0 0 -80z"/>
</g>
</svg>
