<?xml version="1.0" encoding="UTF-8"?>
<svg version="1.1" xmlns="http://www.w3.org/2000/svg" width="1024" height="1024">
<path d="M0 0 C337.92 0 675.84 0 1024 0 C1024 337.92 1024 675.84 1024 1024 C686.08 1024 348.16 1024 0 1024 C0 686.08 0 348.16 0 0 Z " fill="#F8F7F3" transform="translate(0,0)"/>
<path d="M0 0 C1.06623596 -0.00428513 2.13247192 -0.00857025 3.23101807 -0.01298523 C5.47659601 -0.01870066 7.72219245 -0.01924948 9.96777344 -0.01489258 C13.36686523 -0.01174078 16.76507849 -0.03519969 20.1640625 -0.06054688 C48.93378588 -0.14615179 48.93378588 -0.14615179 57.92578125 7.49609375 C69.75696892 19.94713864 68.77697959 35.35212691 68.81420898 51.52905273 C68.820896 52.76831009 68.82758301 54.00756744 68.83447266 55.28437805 C68.84840856 57.94697206 68.86075549 60.60951612 68.87042046 63.27212334 C68.88607288 67.4884264 68.91001261 71.70465896 68.93531799 75.9209137 C69.00601794 87.89864638 69.06643758 99.87641553 69.11743164 111.85424805 C69.14577432 118.4946588 69.18115693 125.13499538 69.22408539 131.77532822 C69.25073509 135.96153015 69.26871293 140.14764865 69.28012264 144.33391845 C69.29142736 147.54875278 69.31553503 150.76349609 69.33764648 153.97827148 C69.33823563 155.12800446 69.33882477 156.27773743 69.33943176 157.46231079 C69.39080672 163.09974047 69.56689886 168.02288009 71.640625 173.30078125 C73.78360793 175.45332491 73.78360793 175.45332491 76.640625 176.30078125 C81.67820972 175.99671665 83.91887164 174.63764469 87.41748047 171.07568359 C88.75950027 169.72825577 88.75950027 169.72825577 90.12863159 168.35360718 C91.08853945 167.36481995 92.04826174 166.37585253 93.0078125 165.38671875 C94.01022555 164.37242061 95.01383747 163.35930604 96.01858521 162.34732056 C98.66016278 159.68102544 101.28683773 157.00053113 103.91015625 154.31628418 C107.59136549 150.55474441 111.29218022 146.81248195 114.99124146 143.06851196 C116.95776527 141.07806938 118.91854125 139.08223697 120.87472534 137.08163452 C122.22620163 135.70583725 122.22620163 135.70583725 123.60498047 134.30224609 C124.38630341 133.50362152 125.16762634 132.70499695 125.97262573 131.88217163 C128.01640528 129.90473748 130.07284803 128.05594356 132.23051453 126.21089172 C137.84340122 121.33769411 143.01400233 116.01826177 148.23803711 110.73754883 C149.38690142 109.58020161 150.53603309 108.42311973 151.68540955 107.26628113 C154.14636212 104.78870189 156.60591075 102.30974038 159.06449699 99.829813 C162.95704761 95.90445945 166.855712 91.98521683 170.75575256 88.06730652 C171.74603223 87.07239715 171.74603223 87.07239715 172.75631756 86.0573886 C174.10543419 84.70196514 175.45455937 83.34655019 176.80369294 81.99114358 C185.87235558 72.87957248 194.93641758 63.76349797 203.98608398 54.63305664 C210.10580663 48.45880641 216.23441939 42.29353324 222.37330252 36.13833159 C225.61580084 32.8864796 228.85358287 29.63022568 232.08045769 26.36286354 C235.11410856 23.29125233 238.15932624 20.23159722 241.21363258 17.18052864 C242.32855832 16.06264357 243.43922945 14.94049539 244.54514313 13.813694 C252.94227789 5.26512896 259.40082897 -0.09273835 271.71574402 -0.24133301 C272.70875015 -0.23323608 273.70175629 -0.22513916 274.72485352 -0.21679688 C275.79596375 -0.22380615 276.86707397 -0.23081543 277.97064209 -0.23803711 C281.48720749 -0.2555446 285.00295863 -0.2440203 288.51953125 -0.23046875 C290.97615207 -0.23316553 293.43277185 -0.2370495 295.88938904 -0.24206543 C301.02784427 -0.24795053 306.16602064 -0.23942826 311.30444336 -0.22070312 C317.88054606 -0.19790266 324.45599609 -0.21105064 331.03207493 -0.23499298 C336.10138338 -0.24946712 341.17053783 -0.24483764 346.239851 -0.23448181 C348.66427628 -0.23181964 351.08871569 -0.23506626 353.51312447 -0.24440002 C356.90438867 -0.25459308 360.2946046 -0.23902495 363.68579102 -0.21679688 C364.68082138 -0.2248938 365.67585175 -0.23299072 366.70103455 -0.24133301 C373.81803975 -0.15519772 379.14657909 1.35268001 384.640625 5.98828125 C386.31870819 9.86884862 386.48198596 13.16800689 385.640625 17.30078125 C384.47533894 19.08254242 384.47533894 19.08254242 382.860672 20.82946777 C381.90147071 21.86988472 381.90147071 21.86988472 380.92289162 22.93132019 C376.16504163 27.87094477 371.34547599 32.74358159 366.49487305 37.59179688 C365.27522814 38.81443866 364.0557869 40.03728364 362.83653259 41.26031494 C359.54594965 44.55967949 356.2521793 47.85584363 352.95752311 51.15114021 C350.89905243 53.21032371 348.84129623 55.27021842 346.7837925 57.33036804 C339.6063486 64.51703976 332.42635017 71.7011477 325.24389648 78.8828125 C318.544871 85.58123503 311.85146743 92.2852395 305.16062135 98.9918313 C299.4120352 104.75346424 293.65962962 110.5112646 287.90419608 116.26605749 C284.46794038 119.70205774 281.03326943 123.13960703 277.60242271 126.58100891 C274.38352934 129.8095373 271.1599321 133.03329156 267.93256569 136.2533493 C266.74641747 137.43844655 265.56199167 138.6252705 264.37937927 139.81389618 C262.77132381 141.42960107 261.15730379 143.03909428 259.54154968 144.64709473 C258.1863247 146.00313686 258.1863247 146.00313686 256.80372143 147.38657379 C254.640625 149.30078125 254.640625 149.30078125 252.640625 149.30078125 C252.310625 150.29078125 251.980625 151.28078125 251.640625 152.30078125 C250.25094958 153.50095548 248.85853174 154.7006113 247.40625 155.82421875 C245.56255526 157.36606966 243.89273601 159.03512325 242.19943237 160.73849487 C240.41943191 162.52246801 238.62636152 164.29269949 236.83178711 166.06201172 C232.91469678 169.92548834 229.00695793 173.79828276 225.10229492 177.67431641 C223.42039982 179.34108274 221.73582797 181.00515238 220.04858398 182.66650391 C217.60204561 185.07654102 215.16542527 187.49623742 212.73046875 189.91796875 C211.97934311 190.65361053 211.22821747 191.38925232 210.45433044 192.14718628 C205.90443115 196.69562175 201.4691718 201.22328715 200.14453125 207.7421875 C200.16386719 208.44214844 200.18320312 209.14210938 200.203125 209.86328125 C200.20441406 210.56582031 200.20570313 211.26835937 200.20703125 211.9921875 C202.66236634 225.06518785 218.86041234 236.62896227 227.85228157 245.55703735 C230.40556579 248.09277521 232.95515572 250.63217535 235.50376892 253.17260742 C242.74294451 260.38744704 249.98792318 267.59643956 257.23706055 274.80126953 C261.68659195 279.22411014 266.13131426 283.65173581 270.57305717 288.08239746 C272.26534955 289.76846735 273.95953874 291.45263559 275.6556263 293.1348877 C278.01329336 295.47346461 280.36485247 297.81802054 282.71508789 300.1640625 C283.42095535 300.86116837 284.12682281 301.55827423 284.8540802 302.27650452 C285.48896362 302.91269211 286.12384705 303.5488797 286.77796936 304.2043457 C287.33410447 304.75733841 287.89023958 305.31033112 288.46322727 305.88008118 C289.640625 307.30078125 289.640625 307.30078125 289.640625 309.30078125 C290.300625 309.30078125 290.960625 309.30078125 291.640625 309.30078125 C293.11190987 310.79262829 293.11190987 310.79262829 294.8117981 312.84184265 C298.33093289 316.97725952 302.04346897 320.82641791 305.90185547 324.64379883 C306.93508942 325.67243294 306.93508942 325.67243294 307.98919678 326.72184753 C309.47162106 328.19716949 310.95517257 329.67135951 312.43975449 331.14451027 C314.79792554 333.48512693 317.15239564 335.82940976 319.50588989 338.17472839 C326.19348225 344.83801478 332.88668331 351.49564547 339.58447266 358.14868164 C343.69470997 362.23196652 347.79992326 366.32024859 351.90219498 370.41153526 C353.45583702 371.95901694 355.01136742 373.50460539 356.56890488 375.04816628 C383.95229119 402.18799858 383.95229119 402.18799858 385.015625 413.17578125 C384.95991897 416.54909113 384.68969724 417.23386455 382.578125 420.11328125 C376.37728817 424.7309257 371.30522912 425.74420281 363.77807617 425.65722656 C362.48855042 425.66029312 362.48855042 425.66029312 361.17297363 425.66342163 C358.34296057 425.66641811 355.5135373 425.64796868 352.68359375 425.62890625 C350.69647871 425.62584314 348.70936152 425.62397122 346.72224426 425.62322998 C342.55538714 425.61863201 338.38872379 425.60423806 334.22192383 425.58203125 C328.93161546 425.55395256 323.64146051 425.54283839 318.35108471 425.53834915 C313.25356872 425.53313682 308.15608949 425.51863218 303.05859375 425.50390625 C302.10952841 425.50202553 301.16046307 425.50014481 300.18263817 425.49820709 C290.67733875 425.47390332 281.17476802 425.376166 271.67700195 424.97558594 C270.58806153 424.94304152 270.58806153 424.94304152 269.47712231 424.90983963 C262.94873485 424.57969484 258.43014055 422.47512383 253.85766602 417.87426758 C252.84114708 416.86225029 252.84114708 416.86225029 251.80409241 415.82978821 C250.73510963 414.74228523 250.73510963 414.74228523 249.64453125 413.6328125 C248.89276108 412.87916916 248.14099091 412.12552582 247.36643982 411.3490448 C245.78040092 409.7562993 244.19795606 408.15996784 242.61889648 406.56030273 C240.22168262 404.13207893 237.8141046 401.71454767 235.40429688 399.29882812 C233.85875354 397.74410713 232.3138121 396.18878751 230.76953125 394.6328125 C230.0589003 393.91793167 229.34826935 393.20305084 228.61610413 392.46650696 C224.67023404 388.46495478 220.88226245 384.37578224 217.22789001 380.10575867 C214.51561859 377.02146674 211.57413579 374.17256811 208.640625 371.30078125 C204.44991894 367.15814377 200.41371872 362.99138198 196.609375 358.48828125 C193.74223824 355.30257374 190.68630621 352.31493367 187.640625 349.30078125 C183.45218308 345.15569794 179.41391783 340.99161766 175.609375 336.48828125 C172.74222486 333.30255887 169.68612763 330.3151349 166.640625 327.30078125 C162.38429343 323.08373719 158.22148409 318.86204689 154.34375 314.2890625 C151.33399892 310.7753852 148.18006859 307.39082318 145.05859375 303.9765625 C142.98185956 301.67839947 140.96010552 299.34704712 138.953125 296.98828125 C135.02282274 292.4739954 130.41983633 287.30478098 124.640625 285.30078125 C118.81284576 285.40857832 115.70697915 287.30696182 111.703125 291.30078125 C111.18806396 291.79336426 110.67300293 292.28594727 110.14233398 292.79345703 C106.38595044 296.43199554 102.84401549 300.24488998 99.45703125 304.23046875 C97.28939876 306.70110364 94.97073902 308.98264308 92.640625 311.30078125 C91.08241947 312.86849183 89.52510574 314.4370892 87.96858215 316.00646973 C87.05901764 316.92326004 86.14945312 317.84005035 85.21232605 318.78462219 C84.72819433 319.27263117 84.24406261 319.76064014 83.74526024 320.26343727 C72.54685084 331.55068957 61.33375084 342.82325679 50.11258411 354.087883 C43.63161169 360.59463792 37.15542435 367.10602649 30.69018555 373.62841797 C25.03713873 379.33141067 19.37525954 385.0254612 13.70275038 390.70909834 C10.70579439 393.71254767 7.71333116 396.72017423 4.73145485 399.73860168 C1.92449456 402.5796958 -0.8941941 405.40861829 -3.72200775 408.22895241 C-4.7526464 409.26095723 -5.77906649 410.29719675 -6.8006916 411.33812523 C-20.42154237 425.20343973 -20.42154237 425.20343973 -30.171875 425.36328125 C-35.017296 423.74814092 -37.45636392 421.90125855 -39.97703171 417.43368149 C-42.15251173 412.08108293 -41.76587282 406.48873217 -41.72686768 400.79937744 C-41.73013652 399.53801617 -41.73340536 398.27665491 -41.73677325 396.97707057 C-41.74540261 393.48503839 -41.73537179 389.99327323 -41.72223091 386.50126433 C-41.71131032 382.72774077 -41.71775097 378.95424125 -41.72201538 375.18070984 C-41.72765347 367.77500313 -41.71731286 360.36939996 -41.70172742 352.96371087 C-41.68409829 344.27656606 -41.68276581 335.58944079 -41.68211183 326.9022809 C-41.68042152 311.32203894 -41.66460679 295.74184335 -41.640625 280.16162109 C-41.61760574 265.19514585 -41.60323411 250.22869985 -41.59960938 235.26220703 C-41.59938661 234.34907652 -41.59916384 233.43594601 -41.59893432 232.49514487 C-41.59849157 230.65440108 -41.59804954 228.81365728 -41.59760825 226.97291349 C-41.59738869 226.06385952 -41.59716912 225.15480556 -41.5969429 224.2182045 C-41.59672692 223.31081343 -41.59651093 222.40342237 -41.5962884 221.4685346 C-41.59252447 207.04365318 -41.58114875 192.61877623 -41.5688125 178.19389994 C-41.56446306 173.04787275 -41.56097941 167.90184594 -41.55820163 162.75581767 C-41.54631615 141.47930901 -41.49888448 120.20331102 -41.38371468 98.92709541 C-41.36683662 95.79099142 -41.35173991 92.6548858 -41.33802605 89.5187664 C-41.29939941 80.8233103 -41.24729409 72.12823872 -41.15988849 63.43312155 C-41.12298925 59.75683013 -41.09172135 56.0807565 -41.07703638 52.40430307 C-41.06050001 48.38799324 -41.0125758 44.37264925 -40.96160889 40.35662842 C-40.96102085 39.18968681 -40.96043281 38.0227452 -40.95982695 36.82044172 C-40.7755406 26.2060777 -38.16003196 15.93440059 -30.359375 8.30078125 C-20.94295935 1.09810557 -11.56421733 -0.01047211 0 0 Z " fill="#8329FE" transform="translate(346.359375,289.69921875)"/>
<path d="M0 0 C6.9767721 5.71643981 13.27223005 12.10822899 19.64453125 18.4765625 C20.86277694 19.69159032 22.08109583 20.90654475 23.29948425 22.12142944 C25.84034633 24.65633182 28.37916167 27.19326399 30.91674805 29.73144531 C34.16770585 32.98250523 37.42551894 36.22660185 40.68509388 39.46901894 C43.19778553 41.97060031 45.70592742 44.47670509 48.21280479 46.98411179 C49.41247959 48.18260748 50.61377411 49.37948414 51.81672096 50.57469559 C53.49433472 52.24251776 55.16550112 53.9165494 56.83520508 55.59228516 C57.33130783 56.0827684 57.82741058 56.57325165 58.33854675 57.07859802 C60.78242361 59.54498378 62.68273041 61.76709317 64 65 C59.99554773 63.42508474 57.80214714 60.80426523 54.98706055 57.61376953 C49.76520535 51.78161586 44.32840291 46.22012099 38.76236916 40.71776962 C37.15813748 39.13133619 35.55782519 37.54103589 33.9584198 35.94973755 C29.42122769 31.4366833 24.87795441 26.92978403 20.33081055 22.42675781 C17.52587348 19.64851172 14.72575578 16.86548424 11.92859459 14.07941055 C10.86709131 13.02411733 9.80369405 11.9707257 8.73838234 10.91927719 C7.26222435 9.46221586 5.7922197 7.99920744 4.32348633 6.53466797 C3.48618484 5.70482391 2.64888336 4.87497986 1.78620911 4.01998901 C0 2 0 2 0 0 Z " fill="#7218FE" transform="translate(655,618)"/>
<path d="M0 0 C0.33 0.99 0.66 1.98 1 3 C-1.31 4.98 -3.62 6.96 -6 9 C-6.66 8.67 -7.32 8.34 -8 8 C-5.36 5.36 -2.72 2.72 0 0 Z " fill="#7415FE" transform="translate(512,383)"/>
</svg>
